<svg width="40" height="40" viewBox="0 0 40 40" fill="none" xmlns="http://www.w3.org/2000/svg">
<rect width="40" height="40" rx="20" fill="white" fill-opacity="0.2"/>
<path opacity="0.992" fill-rule="evenodd" clip-rule="evenodd" d="M21.1374 8H18.8037C16.4862 8.24399 14.4073 9.07285 12.5669 10.4866C9.97927 12.5676 8.45697 15.2622 8 18.5705V21.4295C8.28751 23.6754 9.12243 25.6888 10.5048 27.4698C12.6289 30.0784 15.3684 31.5885 18.7232 32H21.1978C23.1724 31.7787 24.9898 31.1244 26.6499 30.0369C29.4555 28.0987 31.1823 25.4444 31.8305 22.0738C32.36 18.7172 31.649 15.6568 29.6979 12.8926C27.5478 10.0527 24.6944 8.4218 21.1374 8ZM28.0884 12.4094C25.7259 9.97135 22.8389 8.79686 19.4274 8.88591C17.122 9.02508 15.0498 9.78682 13.2107 11.1711C10.9872 12.9225 9.59563 15.1943 9.03611 17.9866C8.52867 20.9981 9.11881 23.7699 10.8065 26.302C11.3085 25.1772 11.6438 24.0027 11.8125 22.7785C11.9706 21.5676 12.0914 20.3528 12.1746 19.1342C12.1987 18.878 12.2323 18.6229 12.2752 18.3691C12.4423 17.2391 12.9486 16.2962 13.7942 15.5403C14.5951 14.9028 15.4903 14.4364 16.48 14.1409C17.0591 13.9336 17.6559 13.8262 18.2705 13.8188C18.854 13.8381 19.4307 13.9119 20.0007 14.0403C20.3719 13.9588 20.7474 13.9186 21.1274 13.9195C21.8401 13.8702 22.4235 14.1185 22.8777 14.6644C22.9842 14.7903 23.0646 14.9312 23.1191 15.0872C23.6433 15.3181 24.1764 15.5295 24.7186 15.7215C25.3645 15.9233 26.0083 16.1314 26.6499 16.3456C27.2409 16.564 27.7707 16.8794 28.2393 17.2919C28.9457 18.0183 29.0899 18.8472 28.6719 19.7785C28.4397 20.2523 28.1445 20.6819 27.7866 21.0671L26.7505 22.0839L25.7144 23.1007C25.365 23.4705 25.023 23.8463 24.6884 24.2282C24.1522 24.8586 23.6627 25.5231 23.2197 26.2215C22.753 26.9712 22.3909 27.7698 22.1333 28.6174C21.9095 29.3836 21.8491 30.1621 21.9522 30.953C23.7167 30.6184 25.3094 29.9105 26.7304 28.8289C29.2903 26.7964 30.7288 24.142 31.0458 20.8658C31.2378 17.6229 30.252 14.8041 28.0884 12.4094ZM20.4031 16.5369C19.9696 15.5428 19.2085 15.073 18.1197 15.1275C17.9368 15.1616 17.7558 15.2119 17.5765 15.2785C16.6615 15.717 16.2222 16.4452 16.2587 17.4631C16.3911 18.4078 16.9108 19.0286 17.8179 19.3255C18.5511 19.5063 19.2083 19.3587 19.7895 18.8825C20.4768 18.2286 20.6813 17.4468 20.4031 16.5369ZM26.5393 19.4765C26.539 19.1239 26.3613 18.9494 26.0061 18.953C25.8924 18.9919 25.7951 19.059 25.7144 19.1544C25.5812 19.4169 25.6315 19.635 25.8653 19.8087C26.2062 19.9317 26.4309 19.821 26.5393 19.4765ZM27.2937 21.1174C27.5812 20.9436 27.8495 20.7456 28.0985 20.5235C27.1275 21.1689 26.0747 21.642 24.9399 21.943C23.8648 22.2391 22.7717 22.3398 21.6605 22.245C21.1316 22.186 20.6353 22.0282 20.1717 21.7718C20.2332 21.8435 20.3002 21.9139 20.3729 21.9832C21.0163 22.4338 21.7339 22.6519 22.5256 22.6376C24.2352 22.5046 25.8246 21.9979 27.2937 21.1174ZM19.88 16.9597C19.6421 16.1548 19.1023 15.7521 18.2605 15.7517C17.669 15.83 17.2431 16.1388 16.983 16.6779C16.8136 17.1463 16.8404 17.6027 17.0634 18.047C17.47 18.6615 18.0366 18.8997 18.7634 18.7617C19.6232 18.4675 19.9954 17.8668 19.88 16.9597Z" fill="white"/>
</svg>
