<svg width="40" height="40" viewBox="0 0 40 40" fill="none" xmlns="http://www.w3.org/2000/svg">
<rect width="40" height="40" rx="20" fill="white" fill-opacity="0.2"/>
<path fill-rule="evenodd" clip-rule="evenodd" d="M20 9C20 15.0751 15.0751 20 9 20C9 13.9249 13.9249 9 20 9ZM20 31C13.9249 31 9 26.0751 9 20C15.0751 20 20 24.9249 20 31ZM31 20C31 26.0751 26.0751 31 20 31C20 24.9249 24.9249 20 31 20ZM30.0833 9.91669C30.0833 14.9793 25.9792 19.0833 20.9167 19.0833C20.9167 14.0207 25.0207 9.91669 30.0833 9.91669Z" fill="white"/>
</svg>
