<svg width="36" height="20" viewBox="0 0 36 20" fill="none" xmlns="http://www.w3.org/2000/svg">
<rect width="36" height="20" rx="7" fill="white"/>
<path d="M11.0625 7.89062C11.0729 7.94271 11.0781 7.98958 11.0781 8.03125C11.0885 8.0625 11.0938 8.09896 11.0938 8.14062C11.0938 8.30729 11.0312 8.45833 10.9062 8.59375C10.7917 8.72917 10.6458 8.79688 10.4688 8.79688C10.375 8.79688 10.3021 8.78125 10.25 8.75C10.2083 8.71875 10.1615 8.67708 10.1094 8.625C10.0677 8.57292 10.0104 8.51042 9.9375 8.4375C9.875 8.36458 9.77604 8.28646 9.64062 8.20312L9.35938 8.10938C9.22396 8.06771 9.07292 8.04688 8.90625 8.04688C8.57292 8.04688 8.28125 8.13021 8.03125 8.29688C7.78125 8.45312 7.56771 8.65625 7.39062 8.90625C7.22396 9.15625 7.09375 9.43229 7 9.73438C6.91667 10.0365 6.875 10.3281 6.875 10.6094C6.875 10.9219 6.92188 11.2135 7.01562 11.4844C7.11979 11.7448 7.26562 11.974 7.45312 12.1719C7.65104 12.3594 7.88542 12.5104 8.15625 12.625C8.4375 12.7396 8.75 12.7969 9.09375 12.7969C9.30208 12.7969 9.51042 12.7708 9.71875 12.7188C9.92708 12.6667 10.1146 12.5729 10.2812 12.4375L10.3281 12.375C10.4531 12.1875 10.625 12.0938 10.8438 12.0938C10.9271 12.0938 11.026 12.1094 11.1406 12.1406L11.2031 12.1719C11.4219 12.349 11.5312 12.5312 11.5312 12.7188C11.5312 12.9479 11.4427 13.1458 11.2656 13.3125C11.0885 13.4792 10.875 13.6198 10.625 13.7344C10.375 13.8385 10.1094 13.9167 9.82812 13.9688C9.55729 14.0208 9.32812 14.0469 9.14062 14.0469C8.64062 14.0469 8.17708 13.9688 7.75 13.8125C7.32292 13.6458 6.94792 13.4167 6.625 13.125C6.3125 12.8229 6.0625 12.4583 5.875 12.0312C5.69792 11.6042 5.60938 11.1198 5.60938 10.5781C5.60938 10.0885 5.69271 9.61458 5.85938 9.15625C6.02604 8.69792 6.26042 8.29167 6.5625 7.9375C6.86458 7.57292 7.22396 7.28125 7.64062 7.0625C8.06771 6.84375 8.54167 6.73438 9.0625 6.73438C9.4375 6.73438 9.79688 6.82292 10.1406 7C10.4948 7.16667 10.8021 7.46354 11.0625 7.89062ZM13.7188 8.21875C13.5729 8.05208 13.5 7.89062 13.5 7.73438C13.5 7.55729 13.5521 7.40625 13.6562 7.28125C13.7708 7.15625 13.9167 7.09375 14.0938 7.09375C14.2292 7.09375 14.3646 7.13542 14.5 7.21875C14.6354 7.29167 14.7604 7.38542 14.875 7.5C14.9896 7.60417 15.0885 7.70833 15.1719 7.8125C15.2552 7.91667 15.3073 7.98958 15.3281 8.03125C15.349 8.02083 15.3958 8.01562 15.4688 8.01562C15.6667 8.01562 15.8542 8.06771 16.0312 8.17188C16.2188 8.26562 16.3854 8.39062 16.5312 8.54688C16.6875 8.70312 16.8229 8.86979 16.9375 9.04688C17.0521 9.22396 17.151 9.39062 17.2344 9.54688C17.3177 9.70312 17.3906 9.875 17.4531 10.0625C17.526 10.2396 17.5833 10.4219 17.625 10.6094C17.6667 10.7969 17.6979 10.9792 17.7188 11.1562C17.7396 11.3333 17.75 11.4948 17.75 11.6406C17.75 12.0677 17.6927 12.4688 17.5781 12.8438C17.474 13.2083 17.2969 13.5312 17.0469 13.8125C16.8073 14.0938 16.4896 14.3125 16.0938 14.4688C15.6979 14.6354 15.2135 14.7188 14.6406 14.7188C14.224 14.7188 13.8802 14.5938 13.6094 14.3438C13.349 14.0938 13.1458 13.8021 13 13.4688C12.8542 13.125 12.75 12.776 12.6875 12.4219C12.6354 12.0677 12.6094 11.7812 12.6094 11.5625C12.6094 11.3542 12.6354 11.151 12.6875 10.9531C12.7396 10.7552 12.8073 10.5729 12.8906 10.4062C12.974 10.2292 13.0573 10.0729 13.1406 9.9375C13.2344 9.80208 13.3229 9.6875 13.4062 9.59375L14.1875 8.67188C14.1771 8.63021 14.1406 8.58333 14.0781 8.53125C14.026 8.46875 13.974 8.41146 13.9219 8.35938L13.7188 8.21875ZM15.2969 9.21875L15.2344 9.3125C15.1094 9.46875 14.9688 9.63021 14.8125 9.79688C14.6667 9.96354 14.526 10.1354 14.3906 10.3125C14.2552 10.4896 14.1406 10.6823 14.0469 10.8906C13.9531 11.099 13.9062 11.3281 13.9062 11.5781C13.9062 11.8073 13.9219 12.0365 13.9531 12.2656C13.9948 12.4844 14.0469 12.6823 14.1094 12.8594C14.1823 13.0365 14.2708 13.1823 14.375 13.2969C14.4792 13.401 14.599 13.4531 14.7344 13.4531C14.849 13.4531 14.9635 13.4427 15.0781 13.4219C15.2031 13.401 15.3125 13.3802 15.4062 13.3594L15.9688 13.0781C16 13.0365 16.0521 12.9844 16.125 12.9219C16.1979 12.849 16.2552 12.776 16.2969 12.7031C16.3906 12.3594 16.4375 12.0208 16.4375 11.6875C16.4375 11.25 16.3646 10.8333 16.2188 10.4375C16.0729 10.0312 15.849 9.66146 15.5469 9.32812L15.3594 9.23438H15.3438C15.3229 9.23438 15.3073 9.22917 15.2969 9.21875ZM21.2812 16.9688C21.2812 17.1771 21.2135 17.3385 21.0781 17.4531C20.9427 17.5677 20.8021 17.625 20.6562 17.625C20.5104 17.625 20.3698 17.5729 20.2344 17.4688C20.099 17.375 20.0208 17.224 20 17.0156C19.9583 16.5365 19.9115 16.0573 19.8594 15.5781C19.8073 15.1094 19.7292 14.6354 19.625 14.1562L19.5625 13.875C19.5625 13.8229 19.5521 13.7708 19.5312 13.7188C19.5208 13.6667 19.5156 13.6146 19.5156 13.5625L19.0938 11.25C19.0833 11.1667 19.0625 11.0417 19.0312 10.875C19.0104 10.7083 18.9844 10.5208 18.9531 10.3125C18.9219 10.1042 18.8906 9.88542 18.8594 9.65625C18.8385 9.41667 18.8281 9.1875 18.8281 8.96875C18.8281 8.6875 18.8802 8.48438 18.9844 8.35938C19.0885 8.22396 19.2135 8.13542 19.3594 8.09375C19.5156 8.04167 19.6719 8.02083 19.8281 8.03125C19.9948 8.03125 20.1354 8.03125 20.25 8.03125C20.6771 8.04167 21.099 8.11979 21.5156 8.26562C21.9427 8.40104 22.3229 8.60417 22.6562 8.875C22.9896 9.14583 23.2552 9.48438 23.4531 9.89062C23.6615 10.2969 23.7656 10.7708 23.7656 11.3125C23.7656 12.0938 23.5208 12.7604 23.0312 13.3125C22.5521 13.8542 21.849 14.1771 20.9219 14.2812C21.0052 14.6979 21.0729 15.1302 21.125 15.5781C21.1875 16.026 21.2396 16.4896 21.2812 16.9688ZM20.6875 12.9844L21.125 12.9531C21.5208 12.9323 21.849 12.776 22.1094 12.4844C22.3698 12.1823 22.5 11.7812 22.5 11.2812C22.5 10.9792 22.4427 10.7083 22.3281 10.4688C22.2135 10.2292 22.0573 10.026 21.8594 9.85938C21.6719 9.68229 21.4427 9.54688 21.1719 9.45312C20.901 9.35938 20.6094 9.3125 20.2969 9.3125H20.1719C20.2031 9.40625 20.224 9.52083 20.2344 9.65625C20.2448 9.78125 20.2552 9.92188 20.2656 10.0781C20.276 10.224 20.2865 10.3802 20.2969 10.5469C20.3073 10.7031 20.3229 10.8594 20.3438 11.0156C20.3958 11.3698 20.4531 11.7135 20.5156 12.0469C20.5781 12.3698 20.6354 12.6823 20.6875 12.9844ZM25.0156 8.48438C25.0573 8.29688 25.1302 8.15625 25.2344 8.0625C25.349 7.96875 25.4844 7.91146 25.6406 7.89062C25.849 7.89062 26 7.96875 26.0938 8.125C26.1875 8.27083 26.25 8.45312 26.2812 8.67188C26.3229 8.89062 26.3438 9.125 26.3438 9.375C26.3542 9.625 26.3698 9.84896 26.3906 10.0469C26.4115 10.2344 26.4375 10.4271 26.4688 10.625C26.5 10.8125 26.5521 10.9896 26.625 11.1562C26.7083 11.3229 26.8177 11.4583 26.9531 11.5625C27.099 11.6667 27.2969 11.7188 27.5469 11.7188C27.6094 11.7188 27.6667 11.7135 27.7188 11.7031C27.7708 11.6823 27.8229 11.6615 27.875 11.6406L28.2656 11.4531C28.3281 11.4115 28.4062 11.3333 28.5 11.2188C28.5938 11.0938 28.6823 10.9375 28.7656 10.75C28.8594 10.5625 28.9375 10.349 29 10.1094C29.0729 9.85938 29.1094 9.58333 29.1094 9.28125C29.1094 9.16667 29.1042 9.0625 29.0938 8.96875C29.0938 8.875 29.0938 8.78646 29.0938 8.70312L29.2188 8.375L29.2656 8.3125C29.474 8.16667 29.6562 8.09375 29.8125 8.09375C29.9271 8.09375 30.026 8.125 30.1094 8.1875C30.1927 8.23958 30.25 8.29688 30.2812 8.35938L30.375 8.5625L30.3906 8.65625C30.3906 8.92708 30.3958 9.19792 30.4062 9.46875C30.4167 9.72917 30.4219 10.0156 30.4219 10.3281C30.4323 10.6406 30.4427 10.9896 30.4531 11.375C30.4635 11.7604 30.4688 12.2031 30.4688 12.7031C30.4688 13.2969 30.4271 13.8281 30.3438 14.2969C30.2604 14.7656 30.099 15.1823 29.8594 15.5469C29.6302 15.9115 29.3125 16.2344 28.9062 16.5156C28.5 16.8073 27.9688 17.0677 27.3125 17.2969C27.1979 17.349 27.0573 17.375 26.8906 17.375C26.7865 17.375 26.6771 17.3594 26.5625 17.3281C26.4583 17.3073 26.3594 17.2656 26.2656 17.2031C26.1719 17.151 26.0938 17.0729 26.0312 16.9688C25.9688 16.875 25.9323 16.7552 25.9219 16.6094C25.9219 16.349 25.9896 16.1562 26.125 16.0312C26.2708 15.9062 26.4219 15.8438 26.5781 15.8438H26.6719H26.7031C26.8177 15.8438 26.9323 15.9115 27.0469 16.0469L27.0938 16.0312C27.1875 15.9896 27.2812 15.9479 27.375 15.9062C27.4583 15.875 27.5365 15.8385 27.6094 15.7969C27.6823 15.7552 27.7448 15.724 27.7969 15.7031C28.1094 15.5469 28.3594 15.3542 28.5469 15.125C28.7448 14.8958 28.8906 14.6354 28.9844 14.3438C29.0885 14.0625 29.1562 13.7604 29.1875 13.4375C29.2188 13.1042 29.2344 12.7552 29.2344 12.3906V12.0938C29.0677 12.2604 28.8385 12.4323 28.5469 12.6094C28.2656 12.776 27.8854 12.8594 27.4062 12.8594C26.8646 12.8594 26.4375 12.724 26.125 12.4531C25.8229 12.1823 25.5938 11.8333 25.4375 11.4062C25.2812 10.9792 25.1771 10.5104 25.125 10C25.0833 9.47917 25.0469 8.97396 25.0156 8.48438Z" fill="black"/>
</svg>
