<svg width="40" height="40" viewBox="0 0 40 40" fill="none" xmlns="http://www.w3.org/2000/svg">
<rect width="40" height="40" rx="20" fill="white" fill-opacity="0.2"/>
<path d="M32.991 20.0054V19.955C32.9655 12.8216 27.1334 7 19.9955 7C12.8576 7 7 12.8216 7 20.0054C7 27.1901 12.8311 33 19.9955 33C23.283 33.0022 26.4448 31.7555 28.8231 29.5193C29.0573 29.3084 29.197 29.0145 29.2113 28.7023C29.2256 28.39 29.1134 28.0849 28.8994 27.8541C28.6854 27.6233 28.3871 27.4857 28.0701 27.4716C27.7532 27.4575 27.4435 27.5681 27.2093 27.7789L27.1837 27.8041C26.1575 28.7653 24.9448 29.5122 23.6184 30C22.2919 30.4879 20.8791 30.7067 19.4647 30.6432C18.0503 30.5797 16.6635 30.2353 15.3876 29.6306C14.1117 29.0259 12.973 28.1735 12.0398 27.1244L17.5912 18.3533V22.412C17.5912 24.3513 18.3589 24.9825 19.004 25.1589C19.6492 25.3354 20.6169 25.2076 21.6651 23.5698L24.7109 18.6972C24.7922 18.555 24.8863 18.4199 24.9905 18.293V20.7644C24.9905 22.5786 25.7325 24.0407 27.011 24.7457C27.6011 25.0623 28.2673 25.2155 28.9387 25.189C29.6102 25.1625 30.2618 24.9574 30.8244 24.5953C32.3011 23.6509 33.0943 21.997 32.991 20.0054ZM29.6135 22.5579C29.4085 22.6971 29.1693 22.7797 28.921 22.7973C28.6726 22.8148 28.4239 22.7667 28.2008 22.6578C27.689 22.3562 27.3811 21.6764 27.3811 20.7437V17.8869C27.3811 16.5274 26.8437 15.5433 25.9235 15.293C24.3618 14.8285 23.1866 16.7291 22.7507 17.4349L19.9955 21.7944V16.4266C19.9699 15.1922 19.5596 14.4611 18.792 14.2333C18.2803 14.083 17.5127 14.1595 16.7715 15.2687L10.606 24.9969C9.78573 23.457 9.35588 21.7444 9.3531 20.0054C9.3531 14.1325 14.1361 9.36879 19.9955 9.36879C25.855 9.36879 30.6379 14.1325 30.6379 20.0054V20.0567C30.6992 21.1893 30.33 22.0987 29.6145 22.5507L29.6135 22.5579Z" fill="white"/>
</svg>
